<svg version="1.1" id="Layer_1" xmlns="http://www.w3.org/2000/svg" xmlns:xlink="http://www.w3.org/1999/xlink" x="0px" y="0px"
	 width="100%" viewBox="0 0 2000 2000" enable-background="new 0 0 2000 2000" xml:space="preserve">
<path fill="#FFFFFF" opacity="1.000000" stroke="none" 
	d="
M1116.000000,2001.000000 
	C744.000000,2001.000000 372.500000,2001.000000 1.000000,2001.000000 
	C1.000000,1334.333374 1.000000,667.666687 1.000000,1.000000 
	C667.666687,1.000000 1334.333374,1.000000 2001.000000,1.000000 
	C2001.000000,667.666687 2001.000000,1334.333374 2001.000000,2001.000000 
	C1706.166626,2001.000000 1411.333374,2001.000000 1116.000000,2001.000000 
M590.088440,1046.631714 
	C595.950623,1019.118347 596.396912,991.367188 591.716675,963.777832 
	C583.153320,913.298584 560.362793,869.927185 522.540222,835.322021 
	C468.414429,785.800476 404.395599,766.453430 331.911194,777.235535 
	C287.367462,783.861450 247.948410,802.807739 215.145782,833.719543 
	C159.219498,886.422241 134.813736,951.346741 142.922424,1028.056519 
	C146.055557,1057.696777 154.960815,1085.654907 169.876236,1111.394653 
	C207.631531,1176.550171 263.913086,1215.152344 338.488373,1225.921753 
	C378.471771,1231.695557 417.619598,1226.685425 454.769775,1210.514404 
	C527.166809,1179.000854 572.176270,1124.429932 590.088440,1046.631714 
M1247.998779,1020.500000 
	C1247.998779,1038.595093 1247.998779,1056.690186 1247.998779,1074.775879 
	C1261.275635,1074.775879 1274.013062,1074.775879 1287.164917,1074.775879 
	C1287.164917,1055.454956 1287.164917,1036.389160 1287.164917,1016.999695 
	C1292.880127,1016.999695 1298.184692,1017.087402 1303.485474,1016.982788 
	C1317.860107,1016.699280 1332.018188,1015.040833 1345.617432,1010.024658 
	C1361.299805,1004.239929 1373.257080,994.482422 1377.593140,977.763855 
	C1379.405762,970.775635 1380.064087,963.303711 1380.038208,956.056030 
	C1379.945312,930.014160 1368.149902,913.830139 1343.255859,905.988953 
	C1311.858398,896.099365 1280.117432,899.999268 1247.998779,904.147766 
	C1247.998779,942.941406 1247.998779,981.220703 1247.998779,1020.500000 
M684.034912,1055.499756 
	C684.034912,1042.745361 684.034912,1029.990845 684.034912,1016.997070 
	C689.979187,1016.997070 695.348083,1017.490417 700.594299,1016.897888 
	C712.788696,1015.520630 725.188782,1014.670105 737.021301,1011.685974 
	C754.981995,1007.156311 769.490784,997.186523 774.412720,978.104553 
	C776.576538,969.715698 777.167114,960.642822 776.832458,951.943542 
	C776.056458,931.772766 766.550598,916.969299 747.598083,908.729797 
	C736.152222,903.753845 724.143372,901.414185 711.806580,900.559631 
	C689.481812,899.013184 667.334778,900.581360 645.309204,904.357788 
	C645.309204,961.462524 645.309204,1018.164734 645.309204,1074.733521 
	C658.360596,1074.733521 671.099731,1074.733521 684.034912,1074.733521 
	C684.034912,1068.456055 684.034912,1062.477783 684.034912,1055.499756 
M1860.793701,1050.617432 
	C1860.183716,1047.386230 1859.573853,1044.155151 1859.083008,1041.554932 
	C1849.936890,1043.262207 1841.222168,1045.281250 1832.394165,1046.434570 
	C1822.074219,1047.782471 1811.719238,1047.466919 1802.044556,1042.917358 
	C1793.371948,1038.839111 1787.803833,1032.301147 1786.722534,1022.036560 
	C1801.036499,1022.036560 1815.011353,1022.036560 1828.986084,1022.036560 
	C1842.945679,1022.036560 1856.905273,1022.036560 1870.942261,1022.036560 
	C1870.942261,1012.143372 1871.762817,1002.602112 1870.770142,993.253296 
	C1868.749390,974.221436 1861.165894,957.959717 1843.791260,947.931274 
	C1818.728638,933.465637 1776.148804,936.541138 1757.076416,972.314941 
	C1748.523438,988.357849 1747.012329,1005.477173 1749.013794,1023.218994 
	C1752.161743,1051.124390 1770.725708,1071.535400 1798.138184,1077.100830 
	C1815.460571,1080.617554 1832.603394,1079.027710 1849.645752,1075.326782 
	C1854.560181,1074.259644 1859.330444,1072.528320 1864.075684,1071.128418 
	C1862.919189,1063.940430 1861.916382,1057.706787 1860.793701,1050.617432 
M1116.125366,954.615173 
	C1108.275269,961.386047 1102.692749,969.745605 1098.827271,979.307617 
	C1093.125366,993.412415 1092.356201,1008.028259 1093.986206,1022.980225 
	C1096.902344,1049.732300 1113.524902,1069.267700 1139.539551,1076.221069 
	C1153.988037,1080.082886 1168.599365,1079.724487 1183.155273,1077.385742 
	C1191.891113,1075.982178 1200.472534,1073.618530 1209.245605,1071.659058 
	C1207.342407,1060.474365 1205.664673,1050.615479 1204.134521,1041.623657 
	C1194.230591,1043.408447 1185.151367,1045.479736 1175.955933,1046.583130 
	C1166.137817,1047.761353 1156.270386,1047.281372 1147.082397,1042.939453 
	C1138.412720,1038.842407 1132.831665,1032.329102 1131.702148,1021.994385 
	C1159.985107,1021.994385 1187.918091,1021.994385 1215.942749,1021.994385 
	C1215.942749,1012.150818 1216.802734,1002.601746 1215.771729,993.261414 
	C1213.290039,970.778015 1203.405029,952.529053 1181.133911,944.352295 
	C1158.227783,935.942444 1136.289795,938.643860 1116.125366,954.615173 
M1456.651978,1077.921631 
	C1477.718384,1078.594849 1498.372314,1076.002686 1518.645020,1070.539307 
	C1518.645020,1027.850708 1518.645020,985.607117 1518.645020,943.316650 
	C1506.188232,943.316650 1493.980957,943.316650 1481.394775,943.316650 
	C1481.394775,977.229248 1481.394775,1010.823364 1481.394775,1044.686646 
	C1477.606445,1045.097046 1474.168213,1045.591919 1470.712524,1045.806641 
	C1467.726196,1045.992188 1464.701294,1046.078979 1461.725952,1045.826416 
	C1452.462524,1045.040283 1447.450562,1041.020996 1444.965332,1032.087769 
	C1443.904175,1028.273682 1443.047852,1024.262451 1443.000122,1020.329895 
	C1442.724731,997.676514 1442.717896,975.019897 1442.624146,952.364380 
	C1442.611816,949.400330 1442.622314,946.436157 1442.622314,943.247681 
	C1429.986938,943.247681 1417.766235,943.247681 1406.114258,943.247681 
	C1406.114258,972.934753 1404.985229,1002.424011 1406.468506,1031.781250 
	C1407.674194,1055.647583 1420.471069,1070.046021 1440.944092,1075.475342 
	C1445.737793,1076.746460 1450.773560,1077.104004 1456.651978,1077.921631 
M1715.881714,1066.394409 
	C1730.808228,1055.135742 1732.796631,1019.910217 1710.921387,1007.349182 
	C1703.603271,1003.147095 1695.827637,999.736389 1688.227783,996.032227 
	C1682.121338,993.055908 1675.634644,990.708557 1669.919067,987.122009 
	C1663.677368,983.205261 1664.756226,974.803711 1671.607910,972.077820 
	C1674.772827,970.818726 1678.464355,969.902710 1681.790283,970.208984 
	C1692.779785,971.220520 1703.711304,972.860107 1715.105713,974.314941 
	C1716.987549,965.883972 1719.106323,956.390747 1721.290283,946.606079 
	C1701.116333,940.306030 1681.160278,937.378357 1660.858398,942.297729 
	C1646.751587,945.716003 1635.530640,953.366150 1630.962158,968.102295 
	C1624.843994,987.837097 1632.349365,1006.377136 1650.630493,1015.847168 
	C1658.717529,1020.036316 1667.363037,1023.137146 1675.685303,1026.886963 
	C1679.154297,1028.450073 1682.575806,1030.207153 1685.773926,1032.258057 
	C1689.119629,1034.403564 1690.706787,1037.642090 1689.725464,1041.722900 
	C1688.783447,1045.640381 1685.946899,1047.448608 1682.201904,1048.000977 
	C1679.406738,1048.413086 1676.589478,1048.814453 1673.771729,1048.908081 
	C1659.443604,1049.384399 1645.781494,1046.119141 1631.988281,1040.998047 
	C1629.880127,1051.088867 1627.820435,1060.947388 1625.726929,1070.968140 
	C1644.443604,1078.403687 1663.461914,1080.236450 1682.944824,1078.424194 
	C1694.713501,1077.329712 1705.878540,1074.444702 1715.881714,1066.394409 
M1044.494751,1079.003296 
	C1057.068237,1079.054199 1069.244995,1076.977661 1081.505615,1072.296143 
	C1079.756470,1062.087036 1078.038208,1052.058838 1076.278809,1041.789795 
	C1065.360962,1045.819336 1054.732422,1047.374878 1043.834229,1046.880005 
	C1026.689941,1046.101440 1017.506226,1038.187012 1014.297668,1021.443787 
	C1013.704590,1018.349121 1013.441711,1015.166931 1013.304749,1012.013000 
	C1012.033936,982.750854 1027.856201,968.494263 1056.754761,973.007080 
	C1061.734985,973.784790 1066.586914,975.383362 1071.635010,976.636719 
	C1074.193237,966.805969 1076.692383,957.202026 1079.314087,947.126892 
	C1057.510864,938.830322 1035.764526,936.229187 1014.144470,945.825195 
	C987.852966,957.494568 976.586548,979.417419 975.259460,1007.084106 
	C974.624084,1020.331482 976.432190,1033.464111 982.436401,1045.456909 
	C995.003540,1070.558472 1017.144165,1078.747681 1044.494751,1079.003296 
M1591.890991,1017.492310 
	C1591.890991,972.066528 1591.890991,926.640808 1591.890991,880.914795 
	C1579.061035,883.006470 1566.812622,885.003357 1554.488281,887.012634 
	C1554.488281,888.384705 1554.488159,889.212585 1554.488159,890.040405 
	C1554.488037,937.354675 1554.476807,984.669006 1554.510864,1031.983276 
	C1554.513306,1035.476440 1554.746582,1038.977417 1555.038208,1042.460815 
	C1556.328003,1057.862793 1563.641113,1069.152588 1578.701416,1073.716797 
	C1587.653442,1076.429932 1597.154541,1077.331543 1606.834839,1079.126587 
	C1608.779297,1067.610840 1610.504883,1057.391479 1612.224121,1047.209106 
	C1609.802124,1046.753784 1607.997681,1046.442261 1606.205078,1046.072876 
	C1597.100464,1044.195923 1592.695679,1039.273560 1592.066772,1029.978271 
	C1591.808472,1026.161621 1591.937988,1022.318787 1591.890991,1017.492310 
M803.487427,987.499634 
	C803.487427,1016.593140 803.487427,1045.686646 803.487427,1074.692505 
	C816.240356,1074.692505 828.466736,1074.692505 841.010315,1074.692505 
	C841.010315,1041.269897 841.010315,1008.189941 841.010315,975.158691 
	C855.241516,971.136230 868.919067,973.500610 882.767822,977.070068 
	C884.901489,966.471375 886.951477,956.288330 889.027161,945.977539 
	C887.215515,945.389465 885.826599,944.844543 884.390930,944.486450 
	C857.646729,937.815979 831.584229,941.220947 805.967651,950.079712 
	C804.770386,950.493774 803.625122,952.989136 803.595215,954.537231 
	C803.389404,965.188049 803.487305,975.844788 803.487427,987.499634 
M908.487427,992.499634 
	C908.487427,1019.936218 908.487427,1047.372803 908.487427,1074.643311 
	C921.329346,1074.643311 933.557678,1074.643311 945.673706,1074.643311 
	C945.673706,1030.641968 945.673706,987.033936 945.673706,943.286621 
	C933.241638,943.286621 921.028442,943.286621 908.487488,943.286621 
	C908.487488,959.549377 908.487488,975.524475 908.487427,992.499634 
M912.487915,887.933594 
	C904.725342,894.151733 903.479126,902.495911 905.585938,911.414612 
	C908.318604,922.982910 920.949951,929.493713 933.225586,926.184998 
	C945.595764,922.850891 951.980286,911.214783 948.448486,898.440674 
	C944.412659,883.843567 927.176697,878.502747 912.487915,887.933594 
z"/>
<path fill="#4D6BFF" opacity="1.000000" stroke="none" 
	d="
M590.042175,1047.054688 
	C572.176270,1124.429932 527.166809,1179.000854 454.769775,1210.514404 
	C417.619598,1226.685425 378.471771,1231.695557 338.488373,1225.921753 
	C263.913086,1215.152344 207.631531,1176.550171 169.876236,1111.394653 
	C154.960815,1085.654907 146.055557,1057.696777 142.922424,1028.056519 
	C134.813736,951.346741 159.219498,886.422241 215.145782,833.719543 
	C247.948410,802.807739 287.367462,783.861450 331.911194,777.235535 
	C404.395599,766.453430 468.414429,785.800476 522.540222,835.322021 
	C560.362793,869.927185 583.153320,913.298584 591.716675,963.777832 
	C596.396912,991.367188 595.950623,1019.118347 590.042175,1047.054688 
M528.359009,1027.800171 
	C528.784851,1027.203613 529.210693,1026.606934 530.095825,1025.367065 
	C514.199890,1025.367065 499.084412,1025.469849 483.972260,1025.289795 
	C480.492188,1025.248291 478.125916,1026.405640 475.719910,1028.821167 
	C441.729614,1062.945923 407.650421,1096.982178 373.586731,1131.033691 
	C372.208069,1132.411865 370.768707,1133.729248 369.191528,1135.233521 
	C367.627502,1133.737305 366.294708,1132.510376 365.014740,1131.230713 
	C335.784698,1102.008301 306.570740,1072.769775 277.326538,1043.561646 
	C271.319763,1037.562256 266.152252,1029.344238 258.874390,1026.379150 
	C251.412979,1023.339355 241.837875,1025.445068 233.187271,1025.379395 
	C225.259476,1025.319214 217.330856,1025.366699 209.732117,1025.366699 
	C263.215118,1078.853149 316.562042,1132.203491 370.862946,1186.507935 
	C422.935669,1134.032349 475.393738,1081.168457 528.359009,1027.800171 
M524.460938,971.060791 
	C472.710663,919.312317 420.960419,867.563782 369.873779,816.478882 
	C316.400177,870.043274 263.259216,923.274475 210.353287,976.270264 
	C224.484497,976.270264 239.305450,976.157654 254.122513,976.348022 
	C257.905762,976.396667 260.593445,975.313477 263.290985,972.601868 
	C297.127869,938.588013 331.082825,904.691711 365.015045,870.772705 
	C366.276581,869.511658 367.614594,868.327087 369.037048,866.994324 
	C370.359436,868.244446 371.459137,869.234253 372.503967,870.279053 
	C406.546295,904.320740 440.608276,938.342896 474.572693,972.462158 
	C477.218994,975.120483 479.809906,976.470398 483.679718,976.362976 
	C493.667450,976.085754 503.668030,976.270447 513.663452,976.270569 
	C518.566956,976.270630 523.470459,976.270569 529.424316,976.270569 
	C527.407043,974.114990 526.200928,972.826172 524.460938,971.060791 
M374.742706,1070.278564 
	C397.699341,1047.377441 420.655975,1024.476318 443.238770,1001.948059 
	C418.100708,976.758362 393.462189,952.069214 369.275726,927.833008 
	C344.758087,952.266663 320.039764,976.900269 295.898010,1000.959290 
	C320.415192,1025.508301 345.078613,1050.203613 370.405518,1075.563354 
	C371.523132,1074.168823 372.879456,1072.476440 374.742706,1070.278564 
z"/>
<path fill="#010101" opacity="1.000000" stroke="none" 
	d="
M1247.998779,1020.000000 
	C1247.998779,981.220703 1247.998779,942.941406 1247.998779,904.147766 
	C1280.117432,899.999268 1311.858398,896.099365 1343.255859,905.988953 
	C1368.149902,913.830139 1379.945312,930.014160 1380.038208,956.056030 
	C1380.064087,963.303711 1379.405762,970.775635 1377.593140,977.763855 
	C1373.257080,994.482422 1361.299805,1004.239929 1345.617432,1010.024658 
	C1332.018188,1015.040833 1317.860107,1016.699280 1303.485474,1016.982788 
	C1298.184692,1017.087402 1292.880127,1016.999695 1287.164917,1016.999695 
	C1287.164917,1036.389160 1287.164917,1055.454956 1287.164917,1074.775879 
	C1274.013062,1074.775879 1261.275635,1074.775879 1247.998779,1074.775879 
	C1247.998779,1056.690186 1247.998779,1038.595093 1247.998779,1020.000000 
M1300.529053,933.030457 
	C1296.101562,933.278137 1291.674072,933.525818 1287.247314,933.773499 
	C1287.247314,950.760559 1287.247314,967.189636 1287.247314,985.145203 
	C1299.432739,983.765686 1311.413452,983.290833 1322.982910,980.858948 
	C1335.271484,978.275940 1340.100586,970.465454 1339.964966,957.386047 
	C1339.844116,945.728027 1333.958862,937.800659 1322.299561,935.235901 
	C1315.535645,933.747986 1308.451416,933.716614 1300.529053,933.030457 
z"/>
<path fill="#010101" opacity="1.000000" stroke="none" 
	d="
M684.034912,1055.999634 
	C684.034912,1062.477783 684.034912,1068.456055 684.034912,1074.733521 
	C671.099731,1074.733521 658.360596,1074.733521 645.309204,1074.733521 
	C645.309204,1018.164734 645.309204,961.462524 645.309204,904.357788 
	C667.334778,900.581360 689.481812,899.013184 711.806580,900.559631 
	C724.143372,901.414185 736.152222,903.753845 747.598083,908.729797 
	C766.550598,916.969299 776.056458,931.772766 776.832458,951.943542 
	C777.167114,960.642822 776.576538,969.715698 774.412720,978.104553 
	C769.490784,997.186523 754.981995,1007.156311 737.021301,1011.685974 
	C725.188782,1014.670105 712.788696,1015.520630 700.594299,1016.897888 
	C695.348083,1017.490417 689.979187,1016.997070 684.034912,1016.997070 
	C684.034912,1029.990845 684.034912,1042.745361 684.034912,1055.999634 
M684.030212,954.500183 
	C684.030212,964.261108 684.030212,974.021973 684.030212,983.881714 
	C690.592102,983.881714 696.570862,983.994080 702.542664,983.837646 
	C705.862183,983.750732 709.219116,983.467285 712.473328,982.832275 
	C720.498474,981.266296 728.702026,979.757874 733.533142,972.041931 
	C742.744202,957.330811 735.410522,939.024536 718.629150,934.999268 
	C707.317017,932.285889 695.852539,932.569153 684.030212,933.947876 
	C684.030212,940.544556 684.030212,947.022461 684.030212,954.500183 
z"/>
<path fill="#020202" opacity="1.000000" stroke="none" 
	d="
M1860.853516,1051.045288 
	C1861.916382,1057.706787 1862.919189,1063.940430 1864.075684,1071.128418 
	C1859.330444,1072.528320 1854.560181,1074.259644 1849.645752,1075.326782 
	C1832.603394,1079.027710 1815.460571,1080.617554 1798.138184,1077.100830 
	C1770.725708,1071.535400 1752.161743,1051.124390 1749.013794,1023.218994 
	C1747.012329,1005.477173 1748.523438,988.357849 1757.076416,972.314941 
	C1776.148804,936.541138 1818.728638,933.465637 1843.791260,947.931274 
	C1861.165894,957.959717 1868.749390,974.221436 1870.770142,993.253296 
	C1871.762817,1002.602112 1870.942261,1012.143372 1870.942261,1022.036560 
	C1856.905273,1022.036560 1842.945679,1022.036560 1828.986084,1022.036560 
	C1815.011353,1022.036560 1801.036499,1022.036560 1786.722534,1022.036560 
	C1787.803833,1032.301147 1793.371948,1038.839111 1802.044556,1042.917358 
	C1811.719238,1047.466919 1822.074219,1047.782471 1832.394165,1046.434570 
	C1841.222168,1045.281250 1849.936890,1043.262207 1859.083008,1041.554932 
	C1859.573853,1044.155151 1860.183716,1047.386230 1860.853516,1051.045288 
M1798.514771,996.001282 
	C1810.885132,996.001282 1823.255371,996.001282 1835.695923,996.001282 
	C1833.553955,978.583374 1824.916382,970.386963 1810.032837,971.058899 
	C1797.039551,971.645508 1787.466797,981.932434 1787.096680,996.001282 
	C1790.572510,996.001282 1794.046387,996.001282 1798.514771,996.001282 
z"/>
<path fill="#020202" opacity="1.000000" stroke="none" 
	d="
M1116.391357,954.380615 
	C1136.289795,938.643860 1158.227783,935.942444 1181.133911,944.352295 
	C1203.405029,952.529053 1213.290039,970.778015 1215.771729,993.261414 
	C1216.802734,1002.601746 1215.942749,1012.150818 1215.942749,1021.994385 
	C1187.918091,1021.994385 1159.985107,1021.994385 1131.702148,1021.994385 
	C1132.831665,1032.329102 1138.412720,1038.842407 1147.082397,1042.939453 
	C1156.270386,1047.281372 1166.137817,1047.761353 1175.955933,1046.583130 
	C1185.151367,1045.479736 1194.230591,1043.408447 1204.134521,1041.623657 
	C1205.664673,1050.615479 1207.342407,1060.474365 1209.245605,1071.659058 
	C1200.472534,1073.618530 1191.891113,1075.982178 1183.155273,1077.385742 
	C1168.599365,1079.724487 1153.988037,1080.082886 1139.539551,1076.221069 
	C1113.524902,1069.267700 1096.902344,1049.732300 1093.986206,1022.980225 
	C1092.356201,1008.028259 1093.125366,993.412415 1098.827271,979.307617 
	C1102.692749,969.745605 1108.275269,961.386047 1116.391357,954.380615 
M1161.742432,971.424255 
	C1144.484009,969.448120 1131.293457,980.399109 1132.372803,995.739990 
	C1148.455688,995.739990 1164.532715,995.739990 1180.635376,995.739990 
	C1179.050415,981.513489 1173.698242,974.444214 1161.742432,971.424255 
z"/>
<path fill="#020202" opacity="1.000000" stroke="none" 
	d="
M1456.175049,1077.901855 
	C1450.773560,1077.104004 1445.737793,1076.746460 1440.944092,1075.475342 
	C1420.471069,1070.046021 1407.674194,1055.647583 1406.468506,1031.781250 
	C1404.985229,1002.424011 1406.114258,972.934753 1406.114258,943.247681 
	C1417.766235,943.247681 1429.986938,943.247681 1442.622314,943.247681 
	C1442.622314,946.436157 1442.611816,949.400330 1442.624146,952.364380 
	C1442.717896,975.019897 1442.724731,997.676514 1443.000122,1020.329895 
	C1443.047852,1024.262451 1443.904175,1028.273682 1444.965332,1032.087769 
	C1447.450562,1041.020996 1452.462524,1045.040283 1461.725952,1045.826416 
	C1464.701294,1046.078979 1467.726196,1045.992188 1470.712524,1045.806641 
	C1474.168213,1045.591919 1477.606445,1045.097046 1481.394775,1044.686646 
	C1481.394775,1010.823364 1481.394775,977.229248 1481.394775,943.316650 
	C1493.980957,943.316650 1506.188232,943.316650 1518.645020,943.316650 
	C1518.645020,985.607117 1518.645020,1027.850708 1518.645020,1070.539307 
	C1498.372314,1076.002686 1477.718384,1078.594849 1456.175049,1077.901855 
z"/>
<path fill="#020202" opacity="1.000000" stroke="none" 
	d="
M1715.615723,1066.628784 
	C1705.878540,1074.444702 1694.713501,1077.329712 1682.944824,1078.424194 
	C1663.461914,1080.236450 1644.443604,1078.403687 1625.726929,1070.968140 
	C1627.820435,1060.947388 1629.880127,1051.088867 1631.988281,1040.998047 
	C1645.781494,1046.119141 1659.443604,1049.384399 1673.771729,1048.908081 
	C1676.589478,1048.814453 1679.406738,1048.413086 1682.201904,1048.000977 
	C1685.946899,1047.448608 1688.783447,1045.640381 1689.725464,1041.722900 
	C1690.706787,1037.642090 1689.119629,1034.403564 1685.773926,1032.258057 
	C1682.575806,1030.207153 1679.154297,1028.450073 1675.685303,1026.886963 
	C1667.363037,1023.137146 1658.717529,1020.036316 1650.630493,1015.847168 
	C1632.349365,1006.377136 1624.843994,987.837097 1630.962158,968.102295 
	C1635.530640,953.366150 1646.751587,945.716003 1660.858398,942.297729 
	C1681.160278,937.378357 1701.116333,940.306030 1721.290283,946.606079 
	C1719.106323,956.390747 1716.987549,965.883972 1715.105713,974.314941 
	C1703.711304,972.860107 1692.779785,971.220520 1681.790283,970.208984 
	C1678.464355,969.902710 1674.772827,970.818726 1671.607910,972.077820 
	C1664.756226,974.803711 1663.677368,983.205261 1669.919067,987.122009 
	C1675.634644,990.708557 1682.121338,993.055908 1688.227783,996.032227 
	C1695.827637,999.736389 1703.603271,1003.147095 1710.921387,1007.349182 
	C1732.796631,1019.910217 1730.808228,1055.135742 1715.615723,1066.628784 
z"/>
<path fill="#020202" opacity="1.000000" stroke="none" 
	d="
M1044.000977,1079.003418 
	C1017.144165,1078.747681 995.003540,1070.558472 982.436401,1045.456909 
	C976.432190,1033.464111 974.624084,1020.331482 975.259460,1007.084106 
	C976.586548,979.417419 987.852966,957.494568 1014.144470,945.825195 
	C1035.764526,936.229187 1057.510864,938.830322 1079.314087,947.126892 
	C1076.692383,957.202026 1074.193237,966.805969 1071.635010,976.636719 
	C1066.586914,975.383362 1061.734985,973.784790 1056.754761,973.007080 
	C1027.856201,968.494263 1012.033936,982.750854 1013.304749,1012.013000 
	C1013.441711,1015.166931 1013.704590,1018.349121 1014.297668,1021.443787 
	C1017.506226,1038.187012 1026.689941,1046.101440 1043.834229,1046.880005 
	C1054.732422,1047.374878 1065.360962,1045.819336 1076.278809,1041.789795 
	C1078.038208,1052.058838 1079.756470,1062.087036 1081.505615,1072.296143 
	C1069.244995,1076.977661 1057.068237,1079.054199 1044.000977,1079.003418 
z"/>
<path fill="#020202" opacity="1.000000" stroke="none" 
	d="
M1591.890991,1017.990112 
	C1591.937988,1022.318787 1591.808472,1026.161621 1592.066772,1029.978271 
	C1592.695679,1039.273560 1597.100464,1044.195923 1606.205078,1046.072876 
	C1607.997681,1046.442261 1609.802124,1046.753784 1612.224121,1047.209106 
	C1610.504883,1057.391479 1608.779297,1067.610840 1606.834839,1079.126587 
	C1597.154541,1077.331543 1587.653442,1076.429932 1578.701416,1073.716797 
	C1563.641113,1069.152588 1556.328003,1057.862793 1555.038208,1042.460815 
	C1554.746582,1038.977417 1554.513306,1035.476440 1554.510864,1031.983276 
	C1554.476807,984.669006 1554.488037,937.354675 1554.488159,890.040405 
	C1554.488159,889.212585 1554.488281,888.384705 1554.488281,887.012634 
	C1566.812622,885.003357 1579.061035,883.006470 1591.890991,880.914795 
	C1591.890991,926.640808 1591.890991,972.066528 1591.890991,1017.990112 
z"/>
<path fill="#020202" opacity="1.000000" stroke="none" 
	d="
M803.487427,986.999634 
	C803.487305,975.844788 803.389404,965.188049 803.595215,954.537231 
	C803.625122,952.989136 804.770386,950.493774 805.967651,950.079712 
	C831.584229,941.220947 857.646729,937.815979 884.390930,944.486450 
	C885.826599,944.844543 887.215515,945.389465 889.027161,945.977539 
	C886.951477,956.288330 884.901489,966.471375 882.767822,977.070068 
	C868.919067,973.500610 855.241516,971.136230 841.010315,975.158691 
	C841.010315,1008.189941 841.010315,1041.269897 841.010315,1074.692505 
	C828.466736,1074.692505 816.240356,1074.692505 803.487427,1074.692505 
	C803.487427,1045.686646 803.487427,1016.593140 803.487427,986.999634 
z"/>
<path fill="#020202" opacity="1.000000" stroke="none" 
	d="
M908.487427,991.999634 
	C908.487488,975.524475 908.487488,959.549377 908.487488,943.286621 
	C921.028442,943.286621 933.241638,943.286621 945.673706,943.286621 
	C945.673706,987.033936 945.673706,1030.641968 945.673706,1074.643311 
	C933.557678,1074.643311 921.329346,1074.643311 908.487427,1074.643311 
	C908.487427,1047.372803 908.487427,1019.936218 908.487427,991.999634 
z"/>
<path fill="#020202" opacity="1.000000" stroke="none" 
	d="
M912.765503,887.701721 
	C927.176697,878.502747 944.412659,883.843567 948.448486,898.440674 
	C951.980286,911.214783 945.595764,922.850891 933.225586,926.184998 
	C920.949951,929.493713 908.318604,922.982910 905.585938,911.414612 
	C903.479126,902.495911 904.725342,894.151733 912.765503,887.701721 
z"/>
<path fill="#FEFEFF" opacity="1.000000" stroke="none" 
	d="
M528.105347,1028.052368 
	C475.393738,1081.168457 422.935669,1134.032349 370.862946,1186.507935 
	C316.562042,1132.203491 263.215118,1078.853149 209.732117,1025.366699 
	C217.330856,1025.366699 225.259476,1025.319214 233.187271,1025.379395 
	C241.837875,1025.445068 251.412979,1023.339355 258.874390,1026.379150 
	C266.152252,1029.344238 271.319763,1037.562256 277.326538,1043.561646 
	C306.570740,1072.769775 335.784698,1102.008301 365.014740,1131.230713 
	C366.294708,1132.510376 367.627502,1133.737305 369.191528,1135.233521 
	C370.768707,1133.729248 372.208069,1132.411865 373.586731,1131.033691 
	C407.650421,1096.982178 441.729614,1062.945923 475.719910,1028.821167 
	C478.125916,1026.405640 480.492188,1025.248291 483.972260,1025.289795 
	C499.084412,1025.469849 514.199890,1025.367065 530.095825,1025.367065 
	C529.210693,1026.606934 528.784851,1027.203613 528.105347,1028.052368 
z"/>
<path fill="#FEFEFF" opacity="1.000000" stroke="none" 
	d="
M524.727844,971.299072 
	C526.200928,972.826172 527.407043,974.114990 529.424316,976.270569 
	C523.470459,976.270569 518.566956,976.270630 513.663452,976.270569 
	C503.668030,976.270447 493.667450,976.085754 483.679718,976.362976 
	C479.809906,976.470398 477.218994,975.120483 474.572693,972.462158 
	C440.608276,938.342896 406.546295,904.320740 372.503967,870.279053 
	C371.459137,869.234253 370.359436,868.244446 369.037048,866.994324 
	C367.614594,868.327087 366.276581,869.511658 365.015045,870.772705 
	C331.082825,904.691711 297.127869,938.588013 263.290985,972.601868 
	C260.593445,975.313477 257.905762,976.396667 254.122513,976.348022 
	C239.305450,976.157654 224.484497,976.270264 210.353287,976.270264 
	C263.259216,923.274475 316.400177,870.043274 369.873779,816.478882 
	C420.960419,867.563782 472.710663,919.312317 524.727844,971.299072 
z"/>
<path fill="#020202" opacity="1.000000" stroke="none" 
	d="
M374.489258,1070.531250 
	C372.879456,1072.476440 371.523132,1074.168823 370.405518,1075.563354 
	C345.078613,1050.203613 320.415192,1025.508301 295.898010,1000.959290 
	C320.039764,976.900269 344.758087,952.266663 369.275726,927.833008 
	C393.462189,952.069214 418.100708,976.758362 443.238770,1001.948059 
	C420.655975,1024.476318 397.699341,1047.377441 374.489258,1070.531250 
M376.726776,973.755798 
	C374.504730,971.112061 372.282684,968.468384 370.534454,966.388367 
	C358.029938,978.719604 346.471710,990.117737 335.351990,1001.083374 
	C346.759735,1012.517822 358.229889,1024.014893 369.459991,1035.271240 
	C380.723969,1024.083130 392.173218,1012.710999 404.438324,1000.528503 
	C395.418121,991.794800 386.348053,983.012817 376.726776,973.755798 
z"/>
<path fill="#FDFDFD" opacity="1.000000" stroke="none" 
	d="
M1301.020142,933.030151 
	C1308.451416,933.716614 1315.535645,933.747986 1322.299561,935.235901 
	C1333.958862,937.800659 1339.844116,945.728027 1339.964966,957.386047 
	C1340.100586,970.465454 1335.271484,978.275940 1322.982910,980.858948 
	C1311.413452,983.290833 1299.432739,983.765686 1287.247314,985.145203 
	C1287.247314,967.189636 1287.247314,950.760559 1287.247314,933.773499 
	C1291.674072,933.525818 1296.101562,933.278137 1301.020142,933.030151 
z"/>
<path fill="#FDFDFD" opacity="1.000000" stroke="none" 
	d="
M684.030212,954.000305 
	C684.030212,947.022461 684.030212,940.544556 684.030212,933.947876 
	C695.852539,932.569153 707.317017,932.285889 718.629150,934.999268 
	C735.410522,939.024536 742.744202,957.330811 733.533142,972.041931 
	C728.702026,979.757874 720.498474,981.266296 712.473328,982.832275 
	C709.219116,983.467285 705.862183,983.750732 702.542664,983.837646 
	C696.570862,983.994080 690.592102,983.881714 684.030212,983.881714 
	C684.030212,974.021973 684.030212,964.261108 684.030212,954.000305 
z"/>
<path fill="#FDFDFD" opacity="1.000000" stroke="none" 
	d="
M1798.017578,996.001282 
	C1794.046387,996.001282 1790.572510,996.001282 1787.096680,996.001282 
	C1787.466797,981.932434 1797.039551,971.645508 1810.032837,971.058899 
	C1824.916382,970.386963 1833.553955,978.583374 1835.695923,996.001282 
	C1823.255371,996.001282 1810.885132,996.001282 1798.017578,996.001282 
z"/>
<path fill="#FDFDFD" opacity="1.000000" stroke="none" 
	d="
M1162.150879,971.533081 
	C1173.698242,974.444214 1179.050415,981.513489 1180.635376,995.739990 
	C1164.532715,995.739990 1148.455688,995.739990 1132.372803,995.739990 
	C1131.293457,980.399109 1144.484009,969.448120 1162.150879,971.533081 
z"/>
<path fill="#4D6BFF" opacity="1.000000" stroke="none" 
	d="
M377.002380,973.993286 
	C386.348053,983.012817 395.418121,991.794800 404.438324,1000.528503 
	C392.173218,1012.710999 380.723969,1024.083130 369.459991,1035.271240 
	C358.229889,1024.014893 346.759735,1012.517822 335.351990,1001.083374 
	C346.471710,990.117737 358.029938,978.719604 370.534454,966.388367 
	C372.282684,968.468384 374.504730,971.112061 377.002380,973.993286 
z"/>
</svg>