<svg version="1.2" xmlns="http://www.w3.org/2000/svg" viewBox="0 0 2000 680" width="2000" height="680">
	<title>file</title>
	<style>
		.s0 { fill: #4d6bff } 
		.s1 { fill: #010101 } 
		.s2 { fill: #020202 } 
	</style>
	<path class="s0" d="m590 386.1c-17.8 77.3-62.8 131.9-135.2 163.4-37.2 16.2-76.3 21.2-116.3 15.4-74.6-10.7-130.9-49.3-168.6-114.5-14.9-25.7-23.8-53.7-27-83.3-8.1-76.8 16.3-141.7 72.2-194.4 32.8-30.9 72.3-49.8 116.8-56.5 72.5-10.7 136.5 8.6 190.6 58.1 37.9 34.6 60.7 78 69.2 128.5 4.7 27.6 4.3 55.3-1.7 83.3zm-61.6-19.3c0.4-0.6 0.8-1.2 1.7-2.4-15.9 0-31 0.1-46.1-0.1-3.5-0.1-5.9 1.1-8.3 3.5-34 34.1-68 68.2-102.1 102.2-1.4 1.4-2.8 2.7-4.4 4.2-1.6-1.5-2.9-2.7-4.2-4-29.2-29.2-58.4-58.4-87.7-87.6-6-6-11.1-14.3-18.4-17.2-7.5-3.1-17.1-1-25.7-1-7.9-0.1-15.9 0-23.5 0 53.5 53.5 106.9 106.8 161.2 161.1 52-52.5 104.5-105.3 157.5-158.7zm-3.9-56.7c-51.8-51.8-103.5-103.5-154.6-154.6-53.5 53.5-106.6 106.8-159.5 159.8 14.1 0 28.9-0.1 43.7 0 3.8 0.1 6.5-1 9.2-3.7 33.8-34 67.8-67.9 101.7-101.8 1.3-1.3 2.6-2.5 4-3.8 1.4 1.2 2.5 2.2 3.5 3.3 34 34 68.1 68 102.1 102.2 2.6 2.6 5.2 4 9.1 3.9 10-0.3 20-0.1 30-0.1 4.9 0 9.8 0 15.7 0-2-2.2-3.2-3.5-4.9-5.2zm-149.8 99.2c23-22.9 46-45.8 68.5-68.4-25.1-25.1-49.7-49.8-73.9-74.1-24.5 24.5-49.3 49.1-73.4 73.2 24.5 24.5 49.2 49.2 74.5 74.6 1.1-1.4 2.5-3.1 4.3-5.3z"/>
	<path class="s1" d="m1248 359c0-38.8 0-77.1 0-115.9 32.1-4.1 63.9-8 95.3 1.9 24.8 7.8 36.6 24 36.7 50.1 0.1 7.2-0.6 14.7-2.4 21.7-4.3 16.7-16.3 26.4-32 32.2-13.6 5-27.7 6.7-42.1 7-5.3 0.1-10.6 0-16.3 0 0 19.4 0 38.5 0 57.8-13.2 0-25.9 0-39.2 0 0-18.1 0-36.2 0-54.8zm52.5-87q-6.6 0.4-13.3 0.8c0 17 0 33.4 0 51.3 12.2-1.3 24.2-1.8 35.8-4.2 12.3-2.6 17.1-10.4 17-23.5-0.2-11.7-6-19.6-17.7-22.2-6.8-1.5-13.8-1.5-21.8-2.2z"/>
	<path class="s1" d="m684 395c0 6.5 0 12.5 0 18.7-12.9 0-25.6 0-38.7 0 0-56.5 0-113.2 0-170.3 22-3.8 44.2-5.4 66.5-3.8 12.3 0.8 24.4 3.2 35.8 8.1 19 8.3 28.5 23.1 29.2 43.2 0.4 8.7-0.2 17.8-2.4 26.2-4.9 19.1-19.4 29.1-37.4 33.6-11.8 3-24.2 3.8-36.4 5.2-5.3 0.6-10.6 0.1-16.6 0.1 0 13 0 25.7 0 39zm0-101.5c0 9.8 0 19.5 0 29.4 6.6 0 12.6 0.1 18.5-0.1 3.4 0 6.7-0.3 10-1 8-1.5 16.2-3 21-10.8 9.2-14.7 1.9-33-14.9-37-11.3-2.7-22.7-2.4-34.6-1.1 0 6.6 0 13.1 0 20.6z"/>
	<path class="s2" d="m1860.9 390c1 6.7 2 12.9 3.2 20.1-4.8 1.4-9.5 3.2-14.5 4.2-17 3.7-34.1 5.3-51.5 1.8-27.4-5.6-45.9-26-49.1-53.9-2-17.7-0.5-34.8 8.1-50.9 19-35.8 61.6-38.8 86.7-24.4 17.4 10.1 24.9 26.3 27 45.4 1 9.3 0.1 18.8 0.1 28.7-14 0-28 0-41.9 0-14 0-28 0-42.3 0 1.1 10.3 6.7 16.8 15.3 20.9 9.7 4.6 20.1 4.9 30.4 3.5 8.8-1.1 17.5-3.1 26.7-4.8 0.5 2.6 1.1 5.8 1.8 9.4zm-62.4-55c12.4 0 24.8 0 37.2 0-2.1-17.4-10.8-25.6-25.7-24.9-13 0.5-22.5 10.8-22.9 24.9 3.5 0 6.9 0 11.4 0z"/>
	<path class="s2" d="m1116.4 293.4c19.9-15.8 41.8-18.5 64.7-10 22.3 8.1 32.2 26.4 34.7 48.9 1 9.3 0.1 18.9 0.1 28.7-28 0-55.9 0-84.2 0 1.1 10.3 6.7 16.8 15.4 20.9 9.2 4.4 19 4.9 28.9 3.7 9.2-1.1 18.2-3.2 28.1-5 1.6 9 3.2 18.9 5.1 30.1-8.7 1.9-17.3 4.3-26 5.7-14.6 2.3-29.2 2.7-43.7-1.2-26-6.9-42.6-26.5-45.5-53.2-1.6-15-0.9-29.6 4.8-43.7 3.9-9.6 9.5-17.9 17.6-24.9zm45.3 17c-17.2-2-30.4 9-29.3 24.3q24.1 0 48.2 0c-1.5-14.2-6.9-21.3-18.9-24.3z"/>
	<path class="s2" d="m1456.2 416.9c-5.4-0.8-10.5-1.2-15.3-2.4-20.4-5.5-33.2-19.9-34.4-43.7-1.5-29.4-0.4-58.9-0.4-88.6 11.7 0 23.9 0 36.5 0 0 3.2 0 6.2 0 9.2 0.1 22.6 0.1 45.3 0.4 67.9 0 4 0.9 8 2 11.8 2.5 8.9 7.5 12.9 16.7 13.7 3 0.3 6 0.2 9 0 3.5-0.2 6.9-0.7 10.7-1.1 0-33.9 0-67.5 0-101.4 12.6 0 24.8 0 37.2 0 0 42.3 0 84.6 0 127.2-20.2 5.5-40.9 8.1-62.4 7.4z"/>
	<path class="s2" d="m1715.6 405.6c-9.7 7.8-20.9 10.7-32.7 11.8-19.4 1.8-38.5 0-57.2-7.4 2.1-10.1 4.2-19.9 6.3-30 13.8 5.1 27.4 8.4 41.8 7.9 2.8-0.1 5.6-0.5 8.4-0.9 3.7-0.6 6.6-2.4 7.5-6.3 1-4.1-0.6-7.3-3.9-9.4-3.2-2.1-6.6-3.8-10.1-5.4-8.3-3.8-17-6.9-25.1-11.1-18.3-9.4-25.8-28-19.6-47.7 4.5-14.7 15.8-22.4 29.9-25.8 20.3-4.9 40.2-2 60.4 4.3-2.2 9.8-4.3 19.3-6.2 27.7-11.4-1.4-22.3-3.1-33.3-4.1-3.3-0.3-7 0.6-10.2 1.9-6.8 2.7-7.9 11.1-1.7 15 5.7 3.6 12.2 6 18.3 8.9 7.6 3.7 15.4 7.1 22.7 11.3 21.9 12.6 19.9 47.8 4.7 59.3z"/>
	<path class="s2" d="m1044 418c-26.9-0.3-49-8.4-61.6-33.5-6-12-7.8-25.2-7.1-38.4 1.3-27.7 12.6-49.6 38.8-61.3 21.7-9.6 43.4-7 65.2 1.3-2.6 10.1-5.1 19.7-7.7 29.5-5-1.2-9.9-2.8-14.8-3.6-28.9-4.5-44.8 9.8-43.5 39 0.1 3.2 0.4 6.3 1 9.4 3.2 16.8 12.4 24.7 29.5 25.5 10.9 0.5 21.6-1.1 32.5-5.1 1.7 10.3 3.5 20.3 5.2 30.5-12.3 4.7-24.4 6.8-37.5 6.7z"/>
	<path class="s2" d="m1591.9 357c0 4.3-0.1 8.2 0.2 12 0.6 9.3 5 14.2 14.1 16.1 1.8 0.3 3.6 0.7 6 1.1-1.7 10.2-3.4 20.4-5.4 31.9-9.6-1.8-19.1-2.7-28.1-5.4-15.1-4.5-22.4-15.8-23.7-31.2-0.3-3.5-0.5-7-0.5-10.5q0-71 0-142c0-0.8 0-1.6 0-3 12.3-2 24.6-4 37.4-6.1 0 45.7 0 91.2 0 137.1z"/>
	<path class="s2" d="m803.5 326c0-11.2-0.1-21.8 0.1-32.5 0-1.5 1.2-4 2.4-4.4 25.6-8.9 51.6-12.3 78.4-5.6 1.4 0.3 2.8 0.9 4.6 1.5-2 10.3-4.1 20.5-6.2 31.1-13.9-3.6-27.6-6-41.8-1.9 0 33 0 66.1 0 99.5-12.5 0-24.8 0-37.5 0 0-29 0-58.1 0-87.7z"/>
	<path class="s2" d="m908.5 331c0-16.5 0-32.5 0-48.7 12.5 0 24.7 0 37.2 0 0 43.7 0 87.3 0 131.3-12.1 0-24.4 0-37.2 0 0-27.2 0-54.7 0-82.6z"/>
	<path class="s2" d="m912.8 226.7c14.4-9.2 31.6-3.9 35.6 10.7 3.6 12.8-2.8 24.5-15.2 27.8-12.3 3.3-24.9-3.2-27.6-14.8-2.1-8.9-0.9-17.2 7.2-23.7z"/>
	<path class="s2" d="m374.5 409.5q-2.4 3-4.1 5.1c-25.3-25.4-50-50.1-74.5-74.6 24.1-24.1 48.9-48.7 73.4-73.2 24.2 24.3 48.8 49 73.9 74.1-22.5 22.6-45.5 45.5-68.7 68.6zm2.2-96.7c-2.2-2.7-4.4-5.3-6.2-7.4-12.5 12.3-24 23.7-35.1 34.7 11.4 11.4 22.8 22.9 34.1 34.2 11.2-11.2 22.7-22.6 34.9-34.8-9-8.7-18.1-17.5-27.7-26.7z"/>
	<path class="s0" d="m377 313c9.3 9 18.4 17.8 27.4 26.5-12.2 12.2-23.7 23.6-34.9 34.8-11.3-11.3-22.7-22.8-34.1-34.2 11.1-11 22.6-22.4 35.1-34.7 1.8 2.1 4 4.7 6.5 7.6z"/>
</svg>